<svg width="1440" height="810" viewBox="0 0 1440 810" fill="none" xmlns="http://www.w3.org/2000/svg">
<g filter="url(#filter0_f_0_1)">
<ellipse cx="719.5" cy="405" rx="512.5" ry="405" fill="#653334"/>
</g>
<path opacity="0.02" d="M271.853 509.73C238.279 138.446 670.827 -133.595 764.764 -123.741C892.735 -110.317 863.628 -86.4362 980.434 125.424C1113.01 365.896 1208.36 258.243 1240.79 522.047C1264.71 716.664 1089.5 733.556 961.084 825.057C862.066 895.61 695.806 988 695.806 988C695.806 988 292.284 735.668 271.853 509.73Z" fill="url(#paint0_linear_0_1)"/>
<g style="mix-blend-mode:color-burn">
<path d="M761.92 77.7219L751.593 81.0378L750.202 90.358L747.153 80.325L737.562 78.64L746.797 75.355L749.284 66L751.945 74.9987L761.92 77.7219Z" fill="#F2E69C"/>
<path d="M1224.16 271.664L1213.83 274.98L1212.44 284.304L1209.4 274.271L1199.81 272.582L1209.04 269.297L1211.52 259.942L1214.19 268.945L1224.16 271.664Z" fill="#F2E69C"/>
<path d="M647.207 254.829L638.848 257.513L637.724 265.055L635.257 256.936L627.498 255.572L634.97 252.915L636.981 245.346L639.138 252.628L647.207 254.829Z" fill="#F2E69C"/>
<path d="M144.71 549.357L136.35 552.042L135.227 559.584L132.759 551.468L125 550.101L132.472 547.444L134.483 539.874L136.637 547.157L144.71 549.357Z" fill="#F2E69C"/>
<path d="M381.886 467.451L373.531 470.132L372.403 477.674L369.94 469.559L362.177 468.191L369.653 465.538L371.66 457.968L373.817 465.247L381.886 467.451Z" fill="#F2E69C"/>
<path d="M1243.33 177.587L1234.98 180.271L1233.85 187.813L1231.38 179.694L1223.63 178.33L1231.1 175.673L1233.11 168.104L1235.26 175.386L1243.33 177.587Z" fill="#F2E69C"/>
<path d="M1149.18 201.344L1140.82 204.029L1139.7 211.571L1137.23 203.452L1129.47 202.088L1136.95 199.431L1138.96 191.861L1141.11 199.144L1149.18 201.344Z" fill="#F2E69C"/>
<path d="M176.321 77.7219L165.994 81.0378L164.599 90.358L161.554 80.325L151.963 78.64L161.198 75.355L163.685 66L166.346 74.9987L176.321 77.7219Z" fill="#F2E69C"/>
<path d="M1232.96 508.682L1226.2 510.855L1225.28 516.968L1223.29 510.39L1217 509.286L1223.05 507.132L1224.68 501L1226.42 506.9L1232.96 508.682Z" fill="#F2E69C"/>
<path d="M920.185 87.7238L913.414 89.897L912.503 96.0058L910.504 89.4282L904.221 88.3242L910.272 86.1704L911.903 80.0383L913.65 85.938L920.185 87.7238Z" fill="#F2E69C"/>
<path d="M241.669 330.682L234.898 332.855L233.987 338.968L231.988 332.39L225.701 331.286L231.756 329.132L233.387 323L235.13 328.9L241.669 330.682Z" fill="#F2E69C"/>
<path d="M671.813 90.0598L665.042 92.2329L664.131 98.3418L662.133 91.7681L655.845 90.6602L661.9 88.5103L663.531 82.3782L665.274 88.2779L671.813 90.0598Z" fill="#F2E69C"/>
<path d="M150.822 371.147L144.051 373.32L143.137 379.429L141.142 372.855L134.855 371.747L140.909 369.597L142.536 363.465L144.283 369.365L150.822 371.147Z" fill="#F2E69C"/>
</g>
<path d="M1440 685.491L1421.59 689.331C1397.88 687.027 1391.02 656.077 1390.08 651.68C1407.36 642.234 1424.16 632.787 1440 623.437V621.152C1317.93 693.632 1137.73 772.64 1046.4 811.04H1051.33C1065.04 805.28 1080.58 798.618 1097.53 791.283C1099.62 792.915 1110.74 801.613 1122.36 811.04H1125.43C1114.25 801.939 1103.17 793.261 1099.53 790.4C1107.48 786.957 1115.71 783.36 1124.24 779.61C1133.28 781.53 1148.74 798.387 1159.2 811.04H1161.72C1151.88 799.04 1136.99 782.432 1126.91 778.4C1133.15 775.661 1139.51 772.851 1145.99 769.971C1148.06 770.374 1176.21 776.288 1187.17 785.792C1187.26 785.927 1187.38 786.035 1187.52 786.099C1189.46 787.667 1190.82 789.846 1191.36 792.282L1178.88 811.04H1181.2L1193.11 793.318C1196.95 791.936 1238.53 776.883 1250.71 778.362L1257.27 798.81L1214.46 811.04H1221.47L1257.95 800.634L1261.25 811.04H1263.36L1259.52 799.52C1262.07 795.334 1287.48 754.458 1302.49 747.123L1325.43 753.44C1317.14 760.083 1277.43 792.301 1264.92 811.04H1267.2C1280.99 791.437 1323.4 757.414 1327.68 753.997L1349.03 759.757C1340.87 765.786 1304.64 792.646 1283 811.04H1285.92C1304.41 795.526 1333.25 773.734 1351.41 760.39L1383.59 769.088C1361.28 775.424 1333.4 798.214 1319.04 811.04H1322C1337.59 797.427 1366.16 774.56 1387.56 770.106L1426.66 780.666C1416.33 784.755 1379.75 799.482 1356.31 811.04H1360.72C1386.82 798.522 1426 783.008 1429.84 781.491L1440.19 784.294V782.374L1430.28 779.706C1408.38 759.2 1406.67 701.754 1406.55 694.4L1440 687.45V685.491ZM1149.02 768.685C1159.93 763.834 1171.1 758.81 1182.55 753.613H1182.74C1183.95 753.391 1185.18 753.23 1186.41 753.133C1186.29 757.318 1185.95 772.774 1186.83 783.162C1176.35 775.328 1156.36 770.317 1149.02 768.685ZM1326.47 684.934C1332.61 681.824 1338.73 678.707 1344.81 675.584C1351.68 686.355 1379.06 693.267 1390.14 695.667L1382.67 697.203L1343.75 705.133C1338.12 701.331 1325.11 691.002 1326.47 684.934ZM1343.75 707.091L1360.03 703.77C1358.11 707.11 1353.68 714.445 1349.3 722.97C1338.72 724.659 1314.37 730.035 1304.45 732.262C1317 722.72 1334.5 710.374 1343.79 707.091H1343.75ZM1289.15 741.651L1276.8 738.272C1278.51 727.443 1297.11 717.152 1298.73 716.269L1335.78 708.723C1318.92 717.901 1292.77 738.714 1289.18 741.594L1289.15 741.651ZM1303.2 696.608C1310.29 693.088 1317.36 689.555 1324.42 686.01C1324.57 693.171 1336.28 702.272 1341.1 705.728L1298.86 714.33C1295.12 706.227 1303.01 696.781 1303.08 696.685L1303.2 696.608ZM1299.57 698.394C1297.31 702.061 1294.35 708.531 1296.98 714.733L1242.78 725.773C1261.65 716.826 1280.64 707.667 1299.61 698.336L1299.57 698.394ZM1292.97 717.498C1286.65 721.549 1276.4 729.325 1274.92 737.83L1239.8 728.346L1292.97 717.498ZM1271.98 739.021C1264.95 741.037 1249.5 746.221 1244.95 754.131L1237.08 729.613L1271.98 739.021ZM1243.49 755.84C1238.69 755.475 1224.69 754.669 1217.53 756.896L1235.33 730.4L1243.49 755.84ZM1233.08 730.4L1214.27 758.394C1206.47 753.378 1197.34 750.865 1188.08 751.194C1202.78 744.378 1217.84 737.446 1233.08 730.4ZM1192.76 790.323C1191.91 788.264 1190.6 786.43 1188.92 784.966C1188.15 774.367 1187.96 763.734 1188.35 753.114C1197.13 752.912 1205.77 755.31 1213.19 760.006L1192.76 790.323ZM1194.82 790.707L1215.36 760.179C1217.61 756.838 1233.96 756.915 1244.16 757.76L1250.13 776.384C1237.79 775.693 1204.76 787.078 1194.89 790.611L1194.82 790.707ZM1245.81 756.954C1248.6 747.008 1273.09 740.691 1275.65 740.058L1286.44 742.976C1274.78 749.043 1256.54 770.048 1251.88 775.616L1245.81 756.954ZM1258.75 797.274L1252.49 777.805C1255.51 774.214 1277.89 747.949 1289.38 743.763L1299.84 746.586C1285.27 755.494 1263.92 788.96 1258.83 797.178L1258.75 797.274ZM1291.39 742.323C1293.18 740.902 1296.5 738.291 1300.7 735.085C1303.51 734.451 1334.5 727.405 1348.15 725.12C1342.92 735.411 1337.91 746.893 1336.99 754.63L1291.39 742.323ZM1350.49 758.278L1338.97 755.13C1340.58 739.77 1360.4 706.995 1362.64 703.29L1380.9 699.565C1375.72 708.051 1354.92 742.688 1350.59 758.182L1350.49 758.278ZM1352.41 758.778C1356.98 742.477 1381 703.098 1383.44 699.085L1393.13 697.165C1382.61 718.554 1385.64 759.795 1386.37 767.994L1352.41 758.778ZM1426.56 778.65L1388.47 768.378C1387.93 762.406 1384.32 717.363 1395.65 696.512L1404.52 694.707C1404.58 703.52 1406.25 756.109 1426.56 778.65ZM1394.94 694.688C1392.04 694.15 1354.46 686.797 1346.52 674.701C1360.76 667.347 1374.76 659.955 1388.39 652.563C1389.62 658.477 1396.22 684.781 1416.54 690.291L1394.94 694.688Z" fill="url(#paint1_linear_0_1)"/>
<path d="M25.5744 811.04C17.9211 798.115 9.37557 785.739 0 774.003L0 777.056C8.43984 787.905 16.2172 799.254 23.2896 811.04H25.5744Z" fill="#030102"/>
<path d="M0 404V406.381C15.456 417.805 35.1744 432.358 58.1376 449.158L86.1504 606.387C64.1472 617.12 34.3104 603.488 31.6416 602.182L0 555.68V559.078L29.8944 602.95C23.9232 616.39 12.2304 634.707 0 652.371V655.731C12.5376 637.76 24.7488 618.79 31.1616 604.794L62.304 650.49C45.888 662.394 18.144 665.562 15.264 665.85L0 658.17V660.32L14.3808 667.616C28.224 692.902 11.52 747.104 9.9456 752.192L0 756.339V758.413L10.5984 753.997C23.3088 763.597 52.5504 796.928 56.4864 801.44L51.2064 811.04H53.3952L58.4256 801.901C65.376 795.046 76.1856 788.71 88.4736 783.046C102.931 782.931 157.92 792.474 176.045 795.699C152.506 799.366 126.317 804.474 107.866 811.059H113.971C155.021 798.157 226.214 791.149 231.437 790.669L264.96 811.04H268.666L232.704 789.171C233.381 785.509 234.68 781.989 236.544 778.765C248.851 756.147 284.87 721.952 288.384 718.688L317.491 719.418C312.038 728.384 283.757 775.846 274.81 811.059H276.845C286.291 774.829 316.474 724.774 319.699 719.475L389.894 721.242C384.672 728.922 359.174 767.149 334.963 811.059H337.171C362.63 765.114 389.222 725.658 392.16 721.299L448.301 722.72C500.947 757.28 550.061 788.096 590.784 811.04H594.624C426.086 716.48 106.925 483.027 0 404ZM60.384 450.79C90.6432 472.928 126.355 498.79 165.178 526.726C136.378 557.638 90.7968 576.646 83.328 579.603L60.384 450.79ZM83.6736 581.523C90.1248 578.989 137.261 559.654 166.752 527.859C175.93 534.438 185.274 541.12 194.784 547.904L172.8 588.32C152.736 599.84 91.7184 589.414 84.9216 588.205L83.6736 581.523ZM85.248 590.24C94.848 591.91 148.896 600.896 171.149 591.277L161.875 608.365C142.234 626.931 100.781 637.683 94.08 639.354L85.248 590.24ZM52.608 686.95L76.224 698.95C79.3344 707.437 72.2112 724.064 71.0976 726.598L36.5376 741.018C40.992 732.454 55.392 702.771 52.6464 687.008L52.608 686.95ZM131.501 727.405L109.651 714.08L136.531 714.771C134.695 716.292 133.273 718.254 132.4 720.474C131.527 722.693 131.231 725.098 131.539 727.462L131.501 727.405ZM78.5664 700.16L103.834 713.005L73.6704 725.6C75.744 720.627 80.256 708.358 78.5664 700.16ZM103.526 693.19C105.774 693.846 108.136 694.014 110.454 693.683C112.772 693.352 114.992 692.529 116.966 691.27L106.656 710.259L103.526 693.19ZM104.371 708.858L92.16 690.79C95.1468 688.093 97.6587 684.913 99.5904 681.382L104.371 708.858ZM119.616 690.195C121.536 694.65 126.816 705.728 136.205 712.89L107.693 712.179L119.616 690.195ZM119.04 687.296C111.686 693.805 104.909 691.731 103.181 691.04L100.819 677.754C104.371 678.618 113.683 679.482 127.891 671.014L119.04 687.296ZM100.435 675.661L97.8048 660.838C103.181 660.474 126.72 658.189 141.619 645.709L129.754 667.597C112.934 678.56 102.624 676.352 100.435 675.661ZM98.6496 676.544C99.3408 680.384 93.9456 686.413 90.9696 689.178L75.5136 666.464C79.8144 667.04 89.2416 667.462 96.0192 661.818L98.6496 676.544ZM91.1232 692.768L103.238 710.547L80.0256 698.758C83.52 697.99 89.184 696.243 91.1232 692.768ZM103.968 715.04L86.112 747.526C84.5376 742.765 80.352 731.648 74.0736 727.52L103.968 715.04ZM106.483 714.445L130.022 728.787C122.899 729.728 103.738 733.261 89.7024 745.05L106.483 714.445ZM120.96 687.987L130.387 670.611C138.308 689.96 153.461 705.458 172.627 713.811L139.853 712.986C127.891 705.44 121.805 690.483 120.96 687.987ZM131.597 668.365L145.613 642.598C150.739 652.448 178.253 702.464 211.469 714.79L178.099 713.946C167.507 710.153 157.859 704.117 149.816 696.25C141.774 688.383 135.526 678.871 131.501 668.365H131.597ZM144.845 639.968C131.27 655.846 102.778 658.573 97.5552 658.938L94.4064 641.254C100.589 639.738 138.202 630.022 159.398 613.165L144.845 639.968ZM95.6352 659.59C88.2432 666.637 76.1472 664.678 74.016 664.275L65.4144 651.68C70.9248 651.526 87.3216 650.451 92.736 643.424L95.6352 659.59ZM89.8752 690.848C89.1072 694.842 80.832 696.838 77.28 697.318L53.6064 685.299C61.8024 681.082 68.6929 674.71 73.536 666.867L89.8752 690.848ZM71.808 728.48C79.0848 731.763 84.0768 747.354 84.8448 749.869L71.7312 773.734C67.8912 768.704 52.1856 749.274 37.056 743.014L71.808 728.48ZM86.6496 750.541C102.509 733.568 129.638 730.707 132.73 730.438L142.08 736.16C132.922 739.616 93.5232 754.938 75.84 770.144L86.6496 750.541ZM133.766 728.845C131.539 720.416 138.336 715.731 139.661 714.925L172.301 715.75C163.853 718.746 148.032 725.485 143.942 734.95L133.766 728.845ZM177.926 715.885L214.694 716.826C204.25 721.76 176.064 736.525 173.376 753.018L145.478 736.006C150.182 724.256 175.891 716.48 177.946 715.866L177.926 715.885ZM146.611 640.544L148.954 636.32C187.565 702.522 265.843 711.546 266.63 711.642C271.162 713.472 275.859 715.136 280.723 716.634L219.034 715.04C182.189 708.013 149.51 646.17 146.611 640.544ZM150.029 634.266L162.547 611.226C167.443 622.074 195.84 679.462 259.296 708.397C238.694 704.307 180.96 688.352 150.029 634.266ZM33.7152 605.139C42.3552 608.806 66.8544 617.523 86.496 608.269L92.256 640.429C89.1264 649.05 67.6224 649.76 64.1088 649.76L33.7152 605.139ZM63.36 652.083L72.2688 665.139C63.8592 678.579 53.2992 683.36 51.3024 684.186L18.3552 667.443C26.6112 666.349 48.8832 662.566 63.36 652.083ZM17.28 668.96L50.496 685.818C53.3568 696.32 46.1184 715.731 40.2624 728.883C33.0432 710.701 22.0416 689.446 21.9264 689.235C21.8653 689.128 21.7875 689.03 21.696 688.947C21.4242 682.075 19.9288 675.307 17.28 668.96ZM21.8688 693.344C25.344 700.256 33.6192 717.018 39.1488 731.322C36.5376 737.082 34.4064 741.114 33.8304 742.189L12.2688 751.213C14.5728 743.84 22.1952 717.152 21.8112 693.402L21.8688 693.344ZM57.5232 799.578C52.224 793.51 25.6896 763.309 12.6912 753.094L34.56 744.032C50.3424 749.389 68.0448 771.987 70.7712 775.558L57.5232 799.578ZM61.2288 796.851L72.7488 775.981C87.1296 758.931 139.238 739.27 144.326 737.389L171.744 754.112C157.978 757.28 89.8368 773.542 61.1712 796.909L61.2288 796.851ZM181.978 794.739C176.774 793.798 114.605 782.528 92.5056 781.203C126.586 766.266 169.613 756.531 174.048 755.552L228.749 788.922C221.702 789.67 203.328 791.61 181.92 794.797L181.978 794.739ZM230.995 788.038L175.315 754.035C176.506 742.822 191.328 732.013 203.482 724.928C204.365 732.454 209.606 766.112 234.624 778.688C232.951 781.632 231.71 784.8 230.938 788.096L230.995 788.038ZM235.469 776.998C210.144 764.307 205.728 728.998 205.229 723.891C212.275 719.917 218.074 717.325 219.168 716.845L285.792 718.534C278.074 725.869 247.334 755.725 235.411 777.056L235.469 776.998ZM288.288 716.672C201.466 693.632 166.464 615.334 163.757 609.018L173.76 590.605C185.414 601.645 289.402 700.045 315.686 717.325L288.288 716.672ZM319.565 717.459C299.923 707.302 183.571 597.248 174.72 588.819L196.416 548.864C275.558 605.446 364.474 667.482 445.44 720.8L319.565 717.459Z" fill="url(#paint2_linear_0_1)"/>
<path d="M0 92.16C12.384 101.587 25.6704 111.13 39.3984 120.557C40.4544 124.608 54.4512 180.499 41.8752 204.23L0 191.578V193.498L50.0736 208.57C49.5552 214.618 45.3696 256.32 27.4368 271.277C17.28 272.64 8.0064 273.504 0 274.195V276.115C8.064 275.424 17.28 274.502 27.6288 273.254H27.7824C27.916 273.252 28.0473 273.219 28.1664 273.158C37.4208 272.026 47.52 270.624 58.3488 268.915H58.4832C58.6376 268.914 58.7893 268.874 58.9248 268.8C62.5728 268.224 66.304 267.584 70.1184 266.88C70.1184 266.88 75.5328 266.88 77.952 269.856V274.541C77.9512 274.783 78.0418 275.016 78.2055 275.194C78.3692 275.372 78.5941 275.481 78.8352 275.501C79.0603 275.504 79.2789 275.426 79.4515 275.282C79.6242 275.137 79.7393 274.936 79.776 274.714C79.776 274.714 81.2736 266.918 90.9696 263.021C96.1728 262.003 101.51 260.909 106.944 259.757C107.077 259.783 107.214 259.783 107.347 259.757C112.742 258.605 118.253 257.357 123.859 256.051C123.936 256.06 124.013 256.06 124.09 256.051C133.69 253.786 143.712 251.309 153.946 248.544C163.008 250.291 165.715 260.064 165.965 260.928V274.733C165.965 274.987 166.066 275.232 166.246 275.412C166.426 275.592 166.67 275.693 166.925 275.693C167.179 275.693 167.424 275.592 167.604 275.412C167.784 275.232 167.885 274.987 167.885 274.733V266.189C169.053 256.982 172.975 248.342 179.136 241.402L181.747 240.614C193.997 236.915 206.157 232.966 218.227 228.768H218.381C251.477 217.274 283.889 203.895 315.456 188.698C318.679 189.406 321.604 191.094 323.828 193.532C326.053 195.97 327.467 199.036 327.878 202.31V215.654C327.878 215.909 327.98 216.153 328.16 216.333C328.34 216.513 328.584 216.614 328.838 216.614C329.093 216.614 329.337 216.513 329.517 216.333C329.697 216.153 329.798 215.909 329.798 215.654V191.808C331.762 185.863 335.29 180.558 340.013 176.448C349.997 171.251 359.853 165.875 369.581 160.32C369.671 160.28 369.754 160.229 369.83 160.166C375.59 156.826 381.523 153.446 387.283 149.971C394.042 145.901 400.723 141.715 407.328 137.491H407.462C407.591 137.437 407.703 137.351 407.789 137.242C416.352 131.763 424.8 126.144 433.133 120.384V164.294C433.133 164.549 433.234 164.793 433.414 164.973C433.594 165.153 433.838 165.254 434.093 165.254C434.347 165.254 434.592 165.153 434.772 164.973C434.952 164.793 435.053 164.549 435.053 164.294V144C437.222 118.848 468.192 94.752 468.48 94.5024C468.554 94.4416 468.618 94.3704 468.672 94.2912L476.083 88.5312C476.25 88.4601 476.391 88.3394 476.486 88.1856C495.469 73.1968 513.728 57.4464 531.264 40.9344C531.812 40.6085 532.427 40.4115 533.062 40.3583C533.698 40.3051 534.337 40.397 534.931 40.6272C536.667 41.6821 537.957 43.3343 538.56 45.2736V50.5536C538.56 50.8082 538.661 51.0524 538.841 51.2324C539.021 51.4125 539.265 51.5136 539.52 51.5136C539.775 51.5136 540.019 51.4125 540.199 51.2324C540.379 51.0524 540.48 50.8082 540.48 50.5536V32.1216C551.245 21.7024 561.722 10.9952 571.91 0H569.318C540.081 31.3535 508.481 60.418 474.797 86.9376C467.347 89.6832 397.882 113.971 370.426 74.4192C385.037 57.4656 398.611 41.28 410.534 26.8416C410.662 26.7486 410.762 26.6224 410.822 26.4768C418.848 16.7616 426.182 7.8336 432.422 0H429.965C423.859 7.5648 416.89 16.1088 409.248 25.3824C370.387 49.44 273.446 57.2544 261.408 58.1376C265.824 36.5568 269.779 16.3776 272.928 0H271.008C267.168 20.256 261.984 46.2144 256.32 73.4784C247.046 73.824 157.056 76.4352 130.502 46.5984L107.731 0H105.6L116.659 22.5984C112.589 29.4528 61.8432 114.182 40.5504 119.04C26.4 109.267 12.6912 99.4368 0 89.7216V92.16ZM538.598 34.0032V41.2224C537.861 40.1929 536.868 39.3725 535.718 38.8416C535.145 38.6036 534.534 38.4672 533.914 38.4384L538.598 34.0032ZM58.0224 267.072C48.288 268.608 39.168 269.875 30.72 270.912C47.5008 254.246 51.3984 215.904 51.9744 209.011L87.168 213.197C86.0736 231.341 60.864 263.482 58.0224 267.072ZM71.4624 141.869C77.4144 145.709 83.3408 149.504 89.2416 153.254C89.3502 153.4 89.4962 153.512 89.664 153.581H89.8944C98.6304 159.11 107.29 164.486 115.738 169.651C118.118 181.824 90.9888 208.282 87.84 211.315L53.376 207.36C71.9424 190.56 71.7696 150.835 71.4624 141.869ZM136.627 182.4C146.419 188.256 155.712 193.709 164.294 198.701C158.534 217.901 135.898 217.094 134.938 217.056L109.632 213.984C124.646 208.205 134.515 187.2 136.627 182.4ZM104.467 213.37L90.24 211.68C96.192 205.92 117.984 183.706 117.754 170.976C123.59 174.547 129.306 177.997 134.899 181.325C132.998 185.837 121.306 211.027 104.467 213.37ZM190.253 173.05C183.994 189.446 168.288 196.09 165.562 197.088C157.248 192.269 148.282 186.989 138.682 181.344C161.722 175.354 172.512 150.278 175.296 142.618L190.253 173.05ZM179.27 146.17C201.869 169.075 230.938 157.555 238.579 153.85C236.429 162.816 234.317 171.398 232.243 179.424C212.544 193.344 193.709 174.067 192.115 172.378L179.27 146.17ZM165.984 199.68L182.246 209.011C181.709 211.488 179.194 220.704 172.262 221.491L143.674 218.093C151.45 216.442 162.086 211.968 165.984 199.68ZM183.994 210.01C197.434 217.69 207.802 223.45 213.274 226.368L176.64 221.933C181.344 219.053 183.341 212.678 183.994 209.933V210.01ZM183.648 207.59C178.714 204.787 173.357 201.715 167.674 198.432C172.531 196.358 185.203 189.754 191.386 175.392L200.467 193.958C199.68 196.147 195.398 208.032 183.648 207.514V207.59ZM194.362 177.197C201.12 182.669 216.019 191.885 231.514 182.419C230.765 185.242 230.016 187.987 229.286 190.656C227.002 191.962 212.544 199.699 202.214 193.248L194.362 177.197ZM233.818 181.037C238.33 180.845 262.618 179.347 281.434 168.672C275.034 175.149 268.634 181.427 262.234 187.507C259.776 188.352 239.712 195.053 231.187 190.694C232.07 187.597 232.947 184.384 233.818 181.056V181.037ZM234.317 179.117C236.39 171.091 238.502 162.528 240.634 153.581C252.326 159.149 288.634 152.141 299.77 149.837C296.026 153.677 292.282 157.517 288.557 161.357C270.931 176.294 240.768 178.752 234.24 179.117H234.317ZM241.094 151.68C243.187 142.81 245.299 133.594 247.392 124.224C254.323 125.779 296.832 134.669 324.806 123.014C317.299 131.213 309.715 139.373 302.112 147.379C297.754 148.32 252.691 157.978 241.094 151.68ZM239.174 151.68C235.008 153.946 200.39 171.475 176.045 139.757L168.614 124.55C178.982 126.893 225.926 136.57 245.242 125.28C243.206 134.189 241.171 143.021 239.155 151.565L239.174 151.68ZM174.182 140.16C173.05 143.77 162.413 174.72 136.32 179.962C130.56 176.486 124.57 172.896 118.502 169.19C126.298 164.429 162.662 141.562 167.251 126.182L174.182 140.16ZM116.698 168.058C109.92 163.91 103.008 159.648 96.0192 155.251C99.8232 155.91 103.679 156.225 107.539 156.192C118.789 155.924 129.974 154.411 140.89 151.68C130.022 159.878 119.213 166.541 116.698 168.058ZM78.048 267.418C77.2581 266.85 76.3919 266.398 75.4752 266.074L78.048 265.613V267.418ZM79.968 269.914V265.267L85.152 264.307C83.0688 265.813 81.3065 267.719 79.968 269.914ZM106.694 258.01C90.24 261.504 74.88 264.346 60.8256 266.611C66.8928 258.835 87.936 230.707 89.088 213.466L103.872 215.213C105.6 219.187 117.12 246.835 106.694 258.01ZM123.398 254.266C118.752 255.341 114.17 256.371 109.651 257.357C117.792 245.165 108.768 221.76 106.099 215.482L134.227 218.88C140.506 233.146 125.414 251.866 123.398 254.266ZM147.475 248.314C140.333 250.234 133.306 251.923 126.355 253.536C130.771 247.776 141.235 232.282 136.32 219.091L170.88 223.2C169.882 226.867 164.678 239.789 147.475 248.314ZM166.195 255.725C164.371 252.103 161.353 249.221 157.651 247.565L166.195 245.203V255.725ZM168.115 257.645V244.723L175.93 242.458C172.438 246.984 169.791 252.103 168.115 257.568V257.645ZM181.555 238.79C172.435 241.555 163.488 244.09 154.675 246.47C168.115 237.6 172.109 226.618 173.011 223.43L213.773 228.288C202.637 232.115 191.878 235.59 181.498 238.714L181.555 238.79ZM186.739 209.28C195.552 208.013 199.968 200.179 201.6 196.301L215.923 225.562C211.315 223.046 200.966 217.344 186.739 209.28ZM218.054 225.542L203.635 196.07C213.024 200.102 224.083 195.456 228.595 193.152C225.716 204.145 222.197 214.96 218.054 225.542ZM230.726 192.576C238.214 196.051 252.173 192.576 259.104 190.656C245.779 203.29 232.781 214.867 220.474 224.794C224.453 214.241 227.875 203.487 230.726 192.576ZM223.162 225.005C235.603 214.906 248.698 203.155 262.099 190.445C264.019 196.723 277.075 199.91 283.642 201.12C262.714 210.202 242.458 218.15 223.162 225.005ZM286.867 199.68C279.84 198.662 263.558 194.938 263.827 188.755C272.083 180.845 280.435 172.531 288.787 163.968C289.459 167.808 291.706 176.102 298.906 181.382C304.14 184.965 310.507 186.502 316.8 185.702C306.714 190.643 296.736 195.302 286.867 199.68ZM327.878 196.205C325.831 192.143 322.296 189.028 318.01 187.507C319.93 186.528 322.003 185.587 324 184.57H324.154L327.878 182.65V196.205ZM329.798 186.605V181.613L334.618 179.174C332.713 181.458 331.094 183.966 329.798 186.643V186.605ZM322.56 182.899C313.229 184.819 305.664 183.878 300.096 179.789C292.416 174.029 290.746 164.141 290.496 162.202C294.618 157.978 298.739 153.702 302.861 149.376C324.154 160.166 353.76 160.723 364.858 160.512C350.598 168.563 336.499 176.026 322.56 182.899ZM368.448 158.477C363.072 158.726 328.378 159.878 304.243 147.898C312.576 139.123 320.87 130.176 329.05 121.171C334.195 123.648 368.966 139.795 393.658 139.795C395.933 139.8 398.205 139.633 400.454 139.296C389.741 146.042 379.072 152.435 368.448 158.477ZM435.053 134.707V119.04C441.338 114.662 447.552 110.182 453.696 105.6C446.611 113.146 438.701 123.475 435.053 134.707ZM470.189 90.5472C448.704 107.232 427.104 122.342 405.6 136.07C384 144 338.016 123.245 330.413 119.693C343.853 104.986 356.813 90.1824 369.139 75.9168C394.157 111.226 451.565 96.4992 470.189 90.528V90.5472ZM261.12 60.096C270.086 59.4624 363.418 52.2432 405.83 29.5872C394.56 43.1232 382.08 58.0416 368.64 73.5936C362.438 75.5136 279.629 99.6096 258.202 74.112C259.2 69.3888 260.102 64.704 261.12 60.096ZM257.741 76.3968C279.686 99.4368 350.093 80.9472 366.336 76.2816C354.182 90.3552 341.376 104.87 328.205 119.328C301.459 133.402 254.784 123.859 247.872 122.323C251.194 107.155 254.515 91.584 257.683 76.3968H257.741ZM255.994 75.4176C252.749 90.9888 249.331 106.963 245.875 122.477C244.34 123.566 242.676 124.463 240.922 125.146C235.949 122.995 179.213 98.0544 155.136 63.84C191.866 77.2992 246.586 75.7824 255.936 75.4176H255.994ZM151.949 62.6304C173.683 96 226.656 120.96 238.214 126.067C215.578 133.018 172.147 123.302 167.52 122.227L132.96 51.7248C138.655 56.3672 145.069 60.0507 151.949 62.6304ZM165.869 123.245C165.869 130.234 155.789 140.045 144.749 148.742C142.176 149.453 109.037 158.342 90.6816 151.891C84.6528 148.051 78.5984 144.211 72.5184 140.371C111.283 122.976 126.989 63.5712 130.118 50.1312L165.869 123.245ZM117.658 24.672L128.64 47.2704C127.584 52.4352 112.627 121.286 70.5216 139.027C61.1904 132.922 51.84 126.72 42.5856 120.384C64.8576 112.128 110.419 36.8064 117.658 24.672ZM69.504 140.602C69.696 145.075 71.0976 190.618 50.8608 206.899L43.7376 204.749C55.4688 181.978 44.5824 133.498 41.8176 122.189C50.9184 128.371 60.192 134.554 69.504 140.602Z" fill="url(#paint3_linear_0_1)"/>
<path d="M1118.38 83.9424C1119.97 85.536 1141.11 107.155 1147.78 130.157C1153.75 150.835 1155.46 194.746 1155.82 206.63V222.451C1155.82 222.706 1155.92 222.95 1156.1 223.13C1156.28 223.31 1156.53 223.411 1156.78 223.411C1157.04 223.411 1157.28 223.31 1157.46 223.13C1157.64 222.95 1157.74 222.706 1157.74 222.451V210.029C1157.77 209.896 1157.77 209.759 1157.74 209.626C1157.74 209.626 1157.74 208.454 1157.74 206.592V144C1163.5 119.443 1178.44 117.331 1180.59 117.12L1272.96 166.502L1321.71 223.085L1323.63 225.389C1324.38 227.731 1332.92 254.477 1332.92 272.41V308.986C1332.92 309.24 1333.02 309.484 1333.2 309.664C1333.38 309.844 1333.63 309.946 1333.88 309.946C1334.14 309.946 1334.38 309.844 1334.56 309.664C1334.74 309.484 1334.84 309.24 1334.84 308.986V260.275C1336.34 248.755 1341.2 247.507 1342.52 247.392L1392.44 305.434C1392.96 306.451 1399.16 319.2 1399.62 331.104V358.694C1399.62 358.946 1399.72 359.187 1399.9 359.367C1400.07 359.546 1400.31 359.649 1400.56 359.654C1400.81 359.655 1401.05 359.559 1401.23 359.387C1401.41 359.215 1401.51 358.981 1401.52 358.733C1401.52 358.579 1401.98 343.68 1401.52 331.085V315.974L1439.92 360.499V357.562L1388.37 297.6C1386.11 230.842 1427.4 196.934 1431.28 193.92L1440 195.418V193.498L1431.19 191.981L1413.31 188.909C1411.87 186.125 1404.44 169.267 1423.08 150.24L1440 148.32V146.4C1437.52 145.978 1388.83 136.8 1370.13 66.3936L1433.8 0H1431.15L1377.2 56.2368C1366.44 62.618 1353.66 64.6768 1341.45 61.9968C1322.44 57.8688 1304.97 42.9312 1289.72 17.6064L1291.53 0H1289.61L1287.78 17.5296C1286.55 19.7184 1271.54 45.5232 1243.37 53.6064C1224.61 58.9632 1204.17 55.4304 1182.57 43.104L1150.19 0H1147.79L1163.79 21.2928C1162.09 27.0827 1159.23 32.4635 1155.37 37.1031C1151.51 41.7428 1146.75 45.5428 1141.36 48.2688C1108.92 65.0496 1056.1 48.1152 1054.39 47.5584L965.395 0H961.325L1118.38 83.9424ZM1399.68 313.747V319.181C1398.87 316.192 1397.89 313.25 1396.76 310.368L1399.68 313.747ZM1155.84 171.667C1154.61 156.48 1152.67 140.141 1149.64 129.658C1144.4 111.61 1130.44 94.464 1123.64 86.7648L1155.84 104.045V171.667ZM1127.96 86.88C1158.68 93.6192 1202.13 81.9264 1208.08 80.256L1214.44 88.704C1201.98 100.416 1162.6 103.238 1159.01 103.469L1127.96 86.88ZM1381 183.302L1354.27 178.694C1353.41 169.094 1365.93 157.843 1367.71 156.307L1392.92 153.6C1389.41 157.037 1379.06 168.787 1381 183.302ZM1308.54 170.88L1280.35 166.022L1310.5 162.701C1309.14 165.211 1308.47 168.03 1308.54 170.88ZM1233.54 110.957C1233.54 110.784 1233.54 110.669 1233.54 110.611C1233.56 110.361 1233.48 110.113 1233.32 109.92C1233.16 109.727 1232.93 109.603 1232.68 109.574H1232.49L1229.18 105.178C1237.04 104.429 1268.83 100.954 1280.04 92.4096L1278.95 102.931C1277.03 105.158 1259.04 123.955 1239.28 118.483H1239.17L1233.54 110.957ZM1239.19 121.69C1235.1 124.501 1230.39 126.273 1225.46 126.854C1229.47 123.428 1232.18 118.732 1233.14 113.549L1239.19 121.69ZM1278.72 106.08L1276.24 129.6C1274.84 131.002 1266.12 139.066 1254.43 138.758L1240.99 120.864C1258.31 124.301 1273.4 111.36 1278.72 106.08ZM1280.64 105.216C1285.55 109.056 1302.51 121.094 1317.85 118.042L1305.25 131.174C1298.98 132.518 1282.87 134.669 1278.11 129.677L1280.64 105.216ZM1320.77 117.773C1324.19 123.36 1340.27 148.051 1361.88 155.002L1344.31 156.922C1333.96 153.082 1307.83 141.677 1306.75 132.365L1320.77 117.773ZM1340.16 157.44L1312.22 160.531C1305.04 158.611 1295.58 149.222 1293.02 146.669L1305.12 134.074C1308.44 143.866 1331.14 153.773 1340.16 157.44ZM1308.13 160.973L1275.95 164.525L1291.76 148.051C1294.08 150.355 1301.34 157.555 1308.19 160.934L1308.13 160.973ZM1312.72 162.394L1342.43 159.13C1339.53 165.216 1342.43 173.434 1343.85 176.947L1310.51 171.187C1309.86 168.499 1311.72 164.275 1312.78 162.355L1312.72 162.394ZM1344.77 158.861L1364.39 156.71C1360.22 160.646 1351.83 169.728 1352.26 178.387L1346.13 177.331C1345.19 175.162 1340.79 164.928 1344.83 158.822L1344.77 158.861ZM1367.31 154.445C1343.67 150.202 1324.99 120.96 1322.21 116.333L1343.71 93.9264C1345.07 103.354 1352.75 143.155 1385.86 152.371L1367.31 154.445ZM1331.96 103.392C1327.56 102.893 1291.35 98.1888 1283.58 77.2224L1285.15 61.8624C1291.05 68.3904 1313.95 91.6224 1342.19 92.5824L1331.96 103.392ZM1330.29 105.12L1320.48 115.354C1304.26 121.114 1284 105.37 1280.93 102.95L1283.17 81.0048C1292.79 99.168 1322.36 104.122 1330.29 105.12ZM1280.37 89.6256C1271.19 99.2256 1232.77 102.95 1227.86 103.392L1211.21 81.2352C1232.33 87.552 1274.42 66.0864 1283.27 61.3632L1280.37 89.6256ZM1157.76 137.222V104.966L1177.88 115.718C1173.12 116.947 1163.35 121.382 1157.76 137.222ZM1162.19 105.158C1172.58 104.314 1204.03 100.896 1215.61 90.2592L1221.62 98.2464C1218.47 101.261 1202.23 116.045 1184.77 117.235L1162.19 105.158ZM1187.77 118.829C1204.61 116.39 1219.3 103.142 1222.77 99.8016L1231.55 111.456C1231.03 114.662 1228.78 124.57 1220.52 127.373C1214.05 127.696 1207.57 127.238 1201.21 126.01L1187.77 118.829ZM1206.43 128.794C1209.8 129.227 1213.19 129.451 1216.59 129.466C1224.52 129.466 1233.73 128.122 1240.34 123.187L1244.37 128.64C1243.31 130.771 1238.9 139.104 1232.58 142.848L1206.43 128.794ZM1248 151.027L1234.56 143.827C1239.24 140.257 1243.04 135.659 1245.66 130.387L1252.93 139.987C1252.61 141.658 1251.17 148.493 1248 151.027ZM1249.8 151.987C1252.42 149.414 1253.82 144.749 1254.47 142.003L1270.12 162.835L1249.8 151.987ZM1272.84 163.2L1255.87 140.678C1263.29 140.266 1270.36 137.379 1275.95 132.48L1272.84 163.2ZM1277.99 131.981C1283.94 136.205 1297.19 134.573 1303.08 133.555L1274.73 163.046L1277.99 131.981ZM1276.07 167.136L1295.63 170.515C1293.81 175.833 1293 181.448 1293.25 187.066L1276.07 167.136ZM1295.56 189.734C1294.02 182.054 1296.69 173.357 1297.48 170.842L1308.19 172.762C1305.96 176.102 1300.36 185.568 1300.8 195.994L1295.56 189.734ZM1303.05 198.432C1301.28 186.912 1308.71 175.392 1310.36 173.05L1332.15 176.89C1327.93 181.766 1313.39 198.989 1310.86 207.61L1303.05 198.432ZM1312.32 209.28C1312.95 202.637 1327.99 184.32 1334.27 177.101L1351.55 180.077C1350.72 181.037 1349.63 182.477 1348.13 184.282C1338.24 188.909 1325.18 214.522 1322.13 220.8L1312.32 209.28ZM1325.2 224.218L1323.49 222.298C1325.26 218.707 1335.4 198.432 1344.25 189.658C1337.18 199.853 1328.52 215.674 1330.23 230.17L1325.2 224.41V224.218ZM1332.88 254.304C1331.28 245.752 1329.23 237.292 1326.72 228.96L1332.88 236.122V254.304ZM1334.8 252.384V238.406L1341.1 245.722C1339.35 246.259 1336.74 247.853 1334.84 252.403L1334.8 252.384ZM1341.14 242.784L1332.61 232.896C1327.55 211.354 1350.55 184.07 1353.73 180.48L1382.69 185.472C1358.38 198.202 1344.13 234.662 1341.18 242.842L1341.14 242.784ZM1342.6 244.474C1344.36 239.443 1359.88 197.549 1385.89 186.029L1408.93 190.003C1396.65 194.803 1355.56 214.138 1353.95 257.645L1342.6 244.474ZM1428.75 193.421C1420.59 200.314 1385.2 233.741 1386.37 295.296L1355.79 259.795C1356.13 210.24 1408.93 191.904 1412.72 190.675L1428.75 193.421ZM1411.01 188.429L1381.48 183.322L1393.63 153.389L1420.09 150.47C1404.56 167.674 1408.95 183.379 1411.05 188.486L1411.01 188.429ZM1434.57 146.938L1391.77 151.68C1352.58 145.478 1345.92 97.0368 1345.4 92.16L1368.6 67.9872C1384.51 126.278 1420.97 142.79 1434.6 146.995L1434.57 146.938ZM1289.39 20.7168C1304.75 45.216 1322.03 59.7504 1341.08 63.8592C1344.71 64.6648 1348.42 65.0704 1352.14 65.0688C1359.31 65.0594 1366.4 63.5554 1372.95 60.6528L1344 90.8544C1313.05 90.8544 1288.09 62.496 1285.42 59.3472L1289.39 20.7168ZM1243.89 55.4496C1267.51 48.672 1282.1 29.7984 1287.34 21.8688L1283.5 59.0592C1278.51 61.7472 1228.88 88.0128 1209.04 78.3744L1185.37 46.8288C1206.07 57.7536 1225.73 60.6528 1243.89 55.4496ZM1105.21 57.6C1118.03 57.6 1131.26 55.68 1142.25 49.92C1147.65 47.1773 1152.47 43.3895 1156.4 38.7756C1160.34 34.1617 1163.32 28.8134 1165.17 23.04L1206.83 78.5088C1204.17 79.2192 1197.68 80.9088 1189.11 82.56C1156.76 84.768 1116.35 63.7824 1105 57.4656L1105.21 57.6ZM1101 57.6C1102.92 58.7904 1142.84 82.1952 1178.42 84.6336C1159.6 87.5328 1135.79 89.0112 1119.36 82.3872L1062.26 51.84C1074.94 55.0769 1087.93 56.969 1101 57.4848V57.6Z" fill="url(#paint4_linear_0_1)"/>
<defs>
<filter id="filter0_f_0_1" x="-393" y="-600" width="2225" height="2010" filterUnits="userSpaceOnUse" color-interpolation-filters="sRGB">
<feFlood flood-opacity="0" result="BackgroundImageFix"/>
<feBlend mode="normal" in="SourceGraphic" in2="BackgroundImageFix" result="shape"/>
<feGaussianBlur stdDeviation="300" result="effect1_foregroundBlur_0_1"/>
</filter>
<linearGradient id="paint0_linear_0_1" x1="756.5" y1="-124" x2="756.5" y2="988" gradientUnits="userSpaceOnUse">
<stop stop-color="white"/>
<stop offset="1" stop-color="white" stop-opacity="0"/>
</linearGradient>
<linearGradient id="paint1_linear_0_1" x1="1060.5" y1="613.5" x2="1438.19" y2="580.721" gradientUnits="userSpaceOnUse">
<stop stop-color="#653334"/>
<stop offset="1" stop-color="#030102"/>
</linearGradient>
<linearGradient id="paint2_linear_0_1" x1="373" y1="531" x2="293.246" y2="885.934" gradientUnits="userSpaceOnUse">
<stop stop-color="#653334"/>
<stop offset="1" stop-color="#030102"/>
</linearGradient>
<linearGradient id="paint3_linear_0_1" x1="328.5" y1="276" x2="33" y2="27.5" gradientUnits="userSpaceOnUse">
<stop stop-color="#653334"/>
<stop offset="1" stop-color="#030102"/>
</linearGradient>
<linearGradient id="paint4_linear_0_1" x1="1038.5" y1="136" x2="1315.85" y2="-104.036" gradientUnits="userSpaceOnUse">
<stop stop-color="#653334"/>
<stop offset="1" stop-color="#030102"/>
</linearGradient>
</defs>
</svg>
